<?xml version="1.0" encoding="UTF-8" standalone="no"?>
<svg id="Calque_1" xmlns:rdf="http://www.w3.org/1999/02/22-rdf-syntax-ns#" xmlns="http://www.w3.org/2000/svg" enable-background="new 0 0 651.969 651.968" xml:space="preserve" height="449.76" viewBox="0 0 449.763 449.76097" width="449.76" version="1.1" y="0px" x="0px" xmlns:cc="http://creativecommons.org/ns#" xmlns:dc="http://purl.org/dc/elements/1.1/" fill="#e44d34"><metadata id="metadata15"><rdf:RDF><cc:Work rdf:about=""><dc:format>image/svg+xml</dc:format><dc:type rdf:resource="http://purl.org/dc/dcmitype/StillImage"/><dc:title/></cc:Work></rdf:RDF></metadata><g id="g3" transform="translate(-101.9 -101.91)"><path id="path5" d="m326.78 551.67c-124 0-224.88-100.88-224.88-224.88s100.88-224.88 224.88-224.88 224.88 100.88 224.88 224.88-100.88 224.88-224.88 224.88zm0-427.09c-111.5 0-202.2 90.709-202.2 202.2 0 111.5 90.709 202.2 202.2 202.2 111.5 0 202.21-90.709 202.21-202.2 0-111.5-90.711-202.2-202.21-202.2z"/></g><g id="g7" transform="translate(-101.9 -101.91)"><path id="path9" d="m292.37 433.05c-13.631 0-26.9-4.096-38.32-11.971l-71.574-49.344c-5.156-3.555-6.453-10.615-2.9-15.771 3.559-5.156 10.621-6.449 15.771-2.9l71.576 49.346c9.916 6.84 21.947 9.395 33.885 7.182 11.936-2.207 22.266-8.893 29.081-18.828l114.07-166.25c3.543-5.16 10.602-6.477 15.766-2.934 5.16 3.543 6.477 10.602 2.934 15.766l-114.08 166.25c-10.25 14.938-25.755 24.986-43.657 28.297-4.192.774-8.395 1.158-12.561 1.158z"/></g></svg>
