<?xml version="1.0" ?><!DOCTYPE svg  PUBLIC '-//W3C//DTD SVG 1.1//EN'  'http://www.w3.org/Graphics/SVG/1.1/DTD/svg11.dtd'><svg enable-background="new 0 0 6144 6144" height="6144px" id="Слой_1" version="1.1" viewBox="0 0 6144 6144" width="6144px" xml:space="preserve" xmlns="http://www.w3.org/2000/svg" xmlns:xlink="http://www.w3.org/1999/xlink"><path d="M0.5,3072C0.5,1375.465,1375.746,0.136,3072.25,0.001c-0.083,0-0.167-0.001-0.25-0.001  C1375.381,0,0,1375.381,0,3072s1375.381,3072,3072,3072c0.083,0,0.167-0.001,0.25-0.001C1375.746,6143.864,0.5,4768.535,0.5,3072z" fill="#C0C279"/><path d="M6144,3072C6144,1375.465,4768.754,0.136,3072.25,0.001C1375.746,0.136,0.5,1375.465,0.5,3072  s1375.246,3071.864,3071.75,3071.999C4768.754,6143.864,6144,4768.535,6144,3072z" fill="#B6CCD8"/><path d="M4515.474,4572.935l-26.472-968.736l-2297.228-388.852L2.563,3185.298  C23.142,3752.904,197.706,4281.23,485.74,4729.75l1917.734,1.152L4515.474,4572.935z" fill="#595651"/><path d="M2487.939,4424.738c65.76-153.625,267.688-839.803,1035.535-839.803c467.724,0,942.865,256.874,1008,872  c0,0-25.775,94.32,26.225,94.32c61.441,0,161,9,159.645-27.014c0,0-9.645-145.986,62.374-148.073l275.708,0.579  c0,0,179.964-215.957,0-311.938s95.98-875.825-599.88-1643.671c-2.631-2.903-5.231-5.785-7.843-8.675  c-82.733,84.595-151.24,81.786-197.421,60.364c-52.38-15.957-82.808-59.892-82.808-59.892c-284-348-476.148-637.184-563.173-820  c-82.827-174,56.688-238.372,56.688-238.372s-139.515,64.372-56.688,238.372c87.024,182.816,279.173,472,563.173,820  c0,0,30.428,43.935,82.808,59.892c-41.118-19.073-64.539-52.893-64.539-52.893c-284-348-476.148-637.184-563.173-820  c-75.341-158.272,33.27-225.831,53.521-236.752c-24.952-37.252-55.447-60.868-81.565-91.653c0,0,2.165,31.8-126.827,31.393  c-38.526-0.122-1565.677-31.588-2866.123-56.54c-30.232,40.851-59.478,82.476-87.697,124.843  c17.879,0.349,33.237,0.677,45.752,0.982c245.988,6,233.988,203.99,233.988,203.99v1025.411H36.295  C12.731,2754.962,0.5,2912.053,0.5,3072c0,605.038,174.921,1169.215,476.938,1644.74c1010.163,0.784,1906.261,1.645,1906.261,1.645  S2383.698,4668.255,2487.939,4424.738z M990.419,2348.935c0,0,1.055-572-0.794-804s269.849-224,269.849-224  s1208.04,19.172,1500,33.628c263.333,13.039,344,162.372,344,162.372s324.167,564.167,369.667,646.667  c36.368,65.943,86.892,117.614,59.636,279.333c-30,178-201.303,158-201.303,158s-1848,0-2108,0S990.419,2348.935,990.419,2348.935z" fill="#9E4D44"/><path d="M1058.005,4260.935c1.469-264,0-1208,0-1208  s-2.531-62-24.531-106s-146-298-146-298s-16-80-16-112s0-966.737,0-966.737s-5.847-246.318-245.847-248.987  c-18.637-0.207-44.745-0.537-77.042-0.968C203.059,1817.138,0.5,2420.912,0.5,3072c0,538.594,138.614,1044.81,382.1,1484.935  c263.274,0,436.874,0,436.874,0S1056.535,4524.935,1058.005,4260.935z" fill="none" stroke="#272624" stroke-miterlimit="10" stroke-width="14"/><path d="M793.619,1577.273c0,0,12-197.99-233.988-203.99  c-12.677-0.309-28.278-0.642-46.455-0.996c-241.677,363.177-408.115,780.727-477.048,1230.397h757.491V1577.273z" enable-background="new    " fill="#7D969B" opacity="0.8"/><path d="M8805.52-1238.292" fill="none" stroke="#272624" stroke-miterlimit="10" stroke-width="14"/><path d="M3133.324,1289.092l780.172,1405.43  c0,0,738.074,802.413,738.074,1642.413" fill="none" stroke="#272624" stroke-miterlimit="10" stroke-width="14"/><path d="M3622.57,1599.934c87.024,182.816,279.173,472,563.173,820  c0,0,105.917,152.969,262.749-8.272l-769.234-1050.1C3679.257,1361.562,3539.742,1425.934,3622.57,1599.934z" enable-background="new    " fill="#7D969B" opacity="0.8"/><path d="M3103.474,1516.935c0,0-80.667-149.333-344-162.372  c-291.96-14.456-1500-33.628-1500-33.628s-271.698-8-269.849,224s0.794,804,0.794,804s-26.945,252,233.055,252s2108,0,2108,0  s171.303,20,201.303-158c27.256-161.719-23.268-213.391-59.636-279.333C3427.641,2081.102,3103.474,1516.935,3103.474,1516.935z" enable-background="new    " fill="#7D969B" opacity="0.8"/><path d="M3604.301,1282.209c-31.385-36.995-65.11-69.908-104.789-100.14  c-197.954-150.822-551.445-294.238-2585.038-296.411c-119.285,117.75-228.977,245.191-327.808,381.044  c1304.456,25.008,2846.097,56.776,2884.808,56.898C3600.466,1324.009,3604.301,1282.209,3604.301,1282.209z" fill="#E2E2E2"/><path d="M2533.36,4596.712c0,0,41.945-939.568,990.114-939.675c912-0.102,992,915.898,992,915.898l164.946,3.113  c-108.946-827.113-698.292-1093.113-1161.887-1093.113c-322.941,0-817.059,106-1051.191,673.623  c-74.712,181.129-57.867,163.377-88.867,256.377c-72.43,217.291-325.174,236-325.174,236s-751.159,0-1617.716,0  c16.294,27.188,33.001,54.1,50.104,80.734c904.69,0.664,1733.108,1.233,1917.786,1.233  C2531.474,4730.902,2533.36,4596.712,2533.36,4596.712z" fill="#272624"/><path d="M5008.142,4002.653c0,0,47.284,62.157,15.465,126.012c-31.818,63.855-168.017,87.893-168.017,87.893  h-263.549l53.115,170.805l35.858,189.044l403.846-10.449c0,0,106.54-142.874,100.54-328.893  C5179.398,4051.046,5008.142,4002.653,5008.142,4002.653z" fill="#AFAFAF"/><ellipse cx="604.921" cy="3041.97" enable-background="new    " fill="#344136" opacity="0.5" rx="188.792" ry="115.7"/><g><path d="M4798.707,3908.37c0,0,3.528,94.283,56.444,94.283s129.84,0,129.84,0V3698.34h-231.637L4798.707,3908.37z" fill="#C4BDBA"/><path d="M4929.232,3121.065c-69.69-4.412-256.69,0-256.69,0s-40.977,13.301-25.443,85.235l37.577,174.008h300.314   V3206.3C4984.99,3206.3,4998.922,3125.477,4929.232,3121.065z" fill="#E7A344"/><polygon fill="#975242" points="4753.353,3698.339 4984.99,3698.339 4984.99,3380.307 4684.676,3380.307  "/></g><circle cx="3524.532" cy="4633.374" fill="#272624" r="840"/><circle cx="3540.532" cy="4630.629" fill="#E2E2E2" r="480"/><circle cx="3540.532" cy="4633.374" fill="#AFAFAF" r="420"/></svg>