<?xml version="1.0" ?><!DOCTYPE svg  PUBLIC '-//W3C//DTD SVG 1.1//EN'  'http://www.w3.org/Graphics/SVG/1.1/DTD/svg11.dtd'><svg enable-background="new 0 0 128 128" height="128px" id="Layer_1" version="1.1" viewBox="0 0 128 128" width="128px" xml:space="preserve" xmlns="http://www.w3.org/2000/svg" xmlns:xlink="http://www.w3.org/1999/xlink"><g><circle cx="64" cy="64" fill="#CECBBE" r="62"/><path d="M87.407,121.408c0.091-0.037,0.18-0.077,0.271-0.114c0.656-0.272,1.308-0.552,1.953-0.845   c0.142-0.064,0.281-0.133,0.422-0.198c0.593-0.275,1.182-0.555,1.765-0.849c0.191-0.096,0.379-0.198,0.569-0.296   c0.53-0.274,1.058-0.549,1.579-0.838c0.236-0.131,0.468-0.269,0.702-0.403c0.47-0.269,0.941-0.537,1.404-0.817   c0.278-0.168,0.549-0.346,0.824-0.518c0.413-0.26,0.829-0.516,1.235-0.785c0.315-0.208,0.623-0.427,0.935-0.641   c0.36-0.248,0.724-0.491,1.079-0.747c0.338-0.243,0.667-0.497,1-0.747c0.297-0.223,0.6-0.439,0.893-0.667   c-0.001-0.001-0.002-0.001-0.003-0.002c0.041-0.032,0.085-0.062,0.126-0.095c-10.487-8.172-23.645-13.076-37.936-13.108   c-0.047,0-0.093,0.194-0.14,0.194c-13.616,0-26.213,4.068-36.46,12.068h0.126c-0.604,0-1.202,0.682-1.789,1.138   c4.798,3.735,10.163,6.674,15.937,8.883l0.002-0.042c0.135,0.052,0.273,0.072,0.409,0.122c0.594,0.222,1.19,0.427,1.792,0.631   c0.089,0.03,0.178,0.052,0.267,0.081c1.571,0.525,3.055,0.987,4.679,1.387c0.023,0.006-0.047,0.01-0.047,0.015v-0.002   c5,1.16,9.792,1.787,14.885,1.787c7.429,0,14.603-1.32,21.202-3.72c0.043-0.016,0.114-0.032,0.156-0.048   C85.961,121.97,86.702,121.696,87.407,121.408z" fill="#35495E"/><ellipse cx="64" cy="110.838" fill="#0A0A0A" opacity="0.2" rx="7" ry="3.5"/><path d="M64,15.98c-17.656,0-31.969,14.313-31.969,31.969c0,4.742,1.299,10.183,3.495,14.386l0.284,0.51   l26.682,47.935c0,0,0.428,1.114,1.507,1.114c1.026,0,1.507-1.114,1.507-1.114l26.832-48.204c2.371-4.48,3.63-9.886,3.63-14.627   C95.969,30.293,81.656,15.98,64,15.98z M63.983,72.807c-13.669,0-24.75-11.081-24.75-24.75c0-13.669,11.081-24.75,24.75-24.75   c13.669,0,24.75,11.081,24.75,24.75C88.733,61.726,77.652,72.807,63.983,72.807z" fill="#D04946"/><circle cx="63.966" cy="47.969" fill="#070707" opacity="0.1" r="24.75"/><g><path d="M64.274,22.39C50.315,22.39,39,33.705,39,47.664c0,11.923,8.258,21.911,19.365,24.572    c1.896,0.454,3.873,0.702,5.909,0.702c10.868,0,20.132-6.861,23.702-16.488c1.015-2.737,1.572-5.696,1.572-8.786    C89.548,33.705,78.232,22.39,64.274,22.39z" fill="#F5F7F8"/></g><path d="M57.119,37.159l-3.535,4.793c-0.085,0.06-0.159,0.072-0.247,0.083c-1.899,0.241-7.103,0.264-8.552,1.721   c0,0-0.989-0.085-1.277,0.54c-0.027,0.059-0.051,0.155-0.071,0.279h-0.361v0.192c0,0-0.724,0.823,0,1.964v0.209h0.271   c0.016,0.97,0.075,1.901,0.161,2.217c0.006,0.023-0.01,0.06-0.04,0.108c0.01-0.034,0.023-0.07,0.04-0.108   c0,0-0.601,0.36-0.696,0.704c-0.119,0.434-0.045,1.291,0.483,1.312c0.54,0.022,1.023-0.002,1.023-0.002h0.688l0.45,0.037   c0.014,1.887,1.548,3.412,3.438,3.412c1.7,0,3.113-1.235,3.389-2.856l1.258,0.102c0.018,0.003,0.037,0.005,0.056,0.005l0,0   l15.113,0.009c2.517,0.002,4.532,0.003,5.093,0.003c0.036,0,0.07-0.003,0.101-0.008l1.063-0.08c0.158,1.752,1.63,3.126,3.424,3.126   c1.899,0,3.438-1.539,3.438-3.438c0-0.067-0.002-0.134-0.006-0.201l0.624-0.047l0.675,0.013c-0.002-0.014-0.004-0.027-0.006-0.041   l0.008,0.042l1.653-0.043c0,0,0.436-0.585,0.411-1.346c-0.025-0.76-0.723-0.959-0.725-0.959c-0.045-0.123-0.073-0.281-0.095-0.47   v-0.776h0v-1.302h-0.221v0h0.221v-0.712c0,0,0.057-0.331-0.228-0.349c-0.066-0.004-0.159-0.006-0.261-0.007   c-0.292-0.9-0.793-1.881-1.678-2.857c-0.011-0.012-0.021-0.024-0.032-0.036l-0.001,0.001c0.001-0.001,0.003-0.003,0.004-0.004   l-3.148-4.298c0,0-0.005,0.002-0.013,0.007c-0.09-0.134-0.197-0.225-0.294-0.33c0-0.001,0-0.001,0-0.001   c-0.128-0.151-0.266-0.286-0.429-0.41c-1.031-0.786-3.094-1.522-19.052-1.08c0,0-1.664,0.143-1.904,0.709   c-0.021-0.035-0.026-0.057-0.026-0.057c-0.049,0.064-0.102,0.133-0.159,0.209 M81.362,42.643L81.362,42.643L81.362,42.643   L81.362,42.643z M81.194,42.531L81.194,42.531L81.194,42.531z M81.204,42.54C81.204,42.54,81.205,42.54,81.204,42.54   C81.205,42.54,81.204,42.54,81.204,42.54z M81.215,42.549L81.215,42.549L81.215,42.549z M81.226,42.558L81.226,42.558   L81.226,42.558z M81.238,42.567L81.238,42.567L81.238,42.567z M81.288,42.602L81.288,42.602L81.288,42.602z M81.302,42.611   L81.302,42.611L81.302,42.611z M81.316,42.619l0.001,0.001L81.316,42.619z M81.331,42.627c0,0,0.001,0,0.001,0.001   C81.332,42.628,81.331,42.627,81.331,42.627z M81.346,42.635c0,0,0.001,0,0.001,0.001C81.347,42.635,81.346,42.635,81.346,42.635z    M69.109,37.928c0.002,0,0.004,0,0.005,0C69.113,37.928,69.111,37.928,69.109,37.928z M81.587,42.695c0.001,0,0.002,0,0.003,0   C81.589,42.695,81.588,42.695,81.587,42.695z M81.389,42.654L81.389,42.654L81.389,42.654z M81.398,42.658   C81.398,42.658,81.399,42.658,81.398,42.658C81.399,42.658,81.399,42.658,81.398,42.658z M81.408,42.662L81.408,42.662   L81.408,42.662z M81.417,42.665C81.417,42.665,81.418,42.665,81.417,42.665C81.418,42.665,81.417,42.665,81.417,42.665z    M81.427,42.668c0,0,0.001,0,0.001,0C81.427,42.668,81.427,42.668,81.427,42.668z M81.436,42.671l0.001,0L81.436,42.671z    M81.446,42.674C81.446,42.674,81.447,42.674,81.446,42.674C81.447,42.674,81.447,42.674,81.446,42.674z M81.457,42.677   L81.457,42.677L81.457,42.677z M81.543,42.692 M78.753,39.113c-0.012-0.024-0.024-0.048-0.035-0.071   C78.729,39.065,78.741,39.089,78.753,39.113 M78.715,38.86c0.001,0.006,0.003,0.011,0.005,0.017   C78.717,38.871,78.716,38.865,78.715,38.86z M78.723,38.888c0.002,0.006,0.003,0.011,0.005,0.017   C78.726,38.9,78.724,38.894,78.723,38.888z M78.732,38.917c0.002,0.006,0.004,0.011,0.006,0.017   C78.735,38.929,78.733,38.923,78.732,38.917z M78.742,38.947c0.002,0.006,0.004,0.012,0.006,0.018   C78.746,38.959,78.744,38.953,78.742,38.947z M78.753,38.977c0.002,0.006,0.005,0.012,0.007,0.019   C78.758,38.989,78.755,38.983,78.753,38.977z M78.686,38.645c0,0.005,0,0.01,0,0.015C78.686,38.655,78.686,38.65,78.686,38.645z    M78.686,38.669c0,0.005,0,0.01,0.001,0.015C78.686,38.679,78.686,38.674,78.686,38.669z M78.687,38.693   c0,0.005,0.001,0.011,0.001,0.016C78.688,38.704,78.687,38.698,78.687,38.693z M78.689,38.717c0.001,0.006,0.001,0.013,0.002,0.019   C78.69,38.73,78.689,38.724,78.689,38.717z M78.691,38.743c0.002,0.017,0.005,0.034,0.008,0.052   C78.696,38.777,78.694,38.76,78.691,38.743z M78.701,38.802c0.001,0.006,0.003,0.013,0.004,0.019   C78.704,38.815,78.702,38.809,78.701,38.802z M78.707,38.831c0.001,0.006,0.003,0.012,0.004,0.017   C78.71,38.843,78.709,38.837,78.707,38.831z M84.541,49.054c-0.03-0.042-0.056-0.092-0.077-0.15   C84.466,48.907,84.51,48.965,84.541,49.054z M82.153,42.413c0.001-0.001,0.001-0.001,0.002-0.002   C82.154,42.412,82.154,42.412,82.153,42.413z M81.598,42.695c0.001,0,0.002,0,0.003,0C81.6,42.695,81.599,42.695,81.598,42.695z    M81.61,42.694c0.001,0,0.002,0,0.003,0C81.612,42.694,81.611,42.694,81.61,42.694z M81.622,42.694c0,0,0.002,0,0.003,0   C81.624,42.694,81.623,42.694,81.622,42.694z M81.634,42.693c0.001,0,0.002,0,0.002,0C81.636,42.693,81.635,42.693,81.634,42.693z    M81.646,42.692l0.002,0L81.646,42.692z M81.749,42.672L81.749,42.672L81.749,42.672z M81.762,42.668c0,0,0.001,0,0.001,0   C81.762,42.668,81.762,42.668,81.762,42.668z M81.775,42.664c0,0,0.001,0,0.002-0.001C81.776,42.664,81.775,42.664,81.775,42.664z    M81.788,42.66c0.001,0,0.002-0.001,0.002-0.001C81.789,42.659,81.788,42.659,81.788,42.66z M81.801,42.655   c0,0,0.002-0.001,0.003-0.001C81.803,42.654,81.802,42.654,81.801,42.655z M81.814,42.65c0.001,0,0.002-0.001,0.003-0.001   C81.816,42.649,81.815,42.649,81.814,42.65z M81.898,42.61c0,0,0.001,0,0.001-0.001C81.899,42.609,81.898,42.609,81.898,42.61z    M82.016,42.533C82.016,42.533,82.016,42.533,82.016,42.533C82.016,42.533,82.016,42.533,82.016,42.533z M82.03,42.522   c0.001,0,0.001-0.001,0.002-0.001C82.031,42.521,82.031,42.521,82.03,42.522z M82.09,42.472c0.001-0.001,0.002-0.002,0.003-0.003   C82.092,42.47,82.091,42.471,82.09,42.472z M82.106,42.458c0,0,0.002-0.002,0.003-0.003C82.108,42.456,82.107,42.457,82.106,42.458   z M82.121,42.443c0.001-0.001,0.002-0.002,0.003-0.002C82.123,42.442,82.122,42.443,82.121,42.443z M82.137,42.429   c0.001-0.001,0.002-0.002,0.002-0.002C82.139,42.427,82.138,42.428,82.137,42.429z M81.159,42.497L81.159,42.497L81.159,42.497z    M81.151,42.489C81.151,42.489,81.151,42.489,81.151,42.489C81.151,42.489,81.151,42.489,81.151,42.489z M81.144,42.482   L81.144,42.482L81.144,42.482z M81.137,42.474C81.137,42.474,81.137,42.474,81.137,42.474   C81.137,42.474,81.137,42.474,81.137,42.474z M81.131,42.467C81.131,42.467,81.131,42.467,81.131,42.467   C81.131,42.467,81.131,42.467,81.131,42.467z M81.112,42.444L81.112,42.444L81.112,42.444z M81.108,42.44L81.108,42.44   L81.108,42.44z M81.105,42.436L81.105,42.436L81.105,42.436z M81.103,42.432L81.103,42.432L81.103,42.432z M81.101,42.43   L81.101,42.43L81.101,42.43z M81.099,42.428L81.099,42.428L81.099,42.428z M81.098,42.427L81.098,42.427L81.098,42.427z    M78.765,39.007c0.003,0.007,0.006,0.014,0.009,0.021C78.771,39.021,78.768,39.014,78.765,39.007z M78.686,38.637   c0-0.005,0-0.01,0-0.015C78.686,38.627,78.686,38.632,78.686,38.637z M78.686,38.614c0-0.005,0.001-0.01,0.001-0.015   C78.687,38.604,78.687,38.609,78.686,38.614z M78.688,38.592c0-0.005,0.001-0.01,0.002-0.015   C78.689,38.581,78.688,38.587,78.688,38.592z M78.69,38.57c0.001-0.006,0.001-0.012,0.002-0.017   C78.692,38.559,78.691,38.564,78.69,38.57z M78.693,38.549c0.002-0.014,0.005-0.028,0.008-0.041   C78.698,38.521,78.695,38.535,78.693,38.549z M78.701,38.506c0.001-0.006,0.003-0.012,0.004-0.018   C78.704,38.494,78.703,38.5,78.701,38.506z M78.707,38.484c0.001-0.005,0.003-0.01,0.004-0.014   C78.709,38.474,78.708,38.479,78.707,38.484z M78.713,38.464c0.001-0.004,0.003-0.009,0.004-0.013   C78.715,38.455,78.714,38.459,78.713,38.464z M78.719,38.445c0.001-0.004,0.003-0.008,0.004-0.012   C78.722,38.437,78.72,38.441,78.719,38.445z M78.725,38.427c0.002-0.004,0.003-0.008,0.005-0.012   C78.728,38.419,78.727,38.423,78.725,38.427z M78.732,38.41c0.002-0.004,0.003-0.008,0.005-0.012   C78.736,38.402,78.734,38.406,78.732,38.41z M78.739,38.393c0.002-0.004,0.004-0.009,0.006-0.013   C78.743,38.384,78.741,38.389,78.739,38.393z M78.747,38.377c0.002-0.005,0.005-0.01,0.007-0.014   C78.752,38.367,78.749,38.372,78.747,38.377z M78.755,38.361c0.008-0.016,0.017-0.031,0.027-0.045   C78.772,38.33,78.763,38.345,78.755,38.361z M78.783,38.313c0.003-0.004,0.005-0.008,0.008-0.012   C78.788,38.306,78.786,38.31,78.783,38.313z M78.793,38.299c0.002-0.003,0.005-0.007,0.007-0.01   C78.798,38.292,78.795,38.295,78.793,38.299z M78.803,38.285c0.002-0.003,0.005-0.006,0.007-0.009   C78.807,38.279,78.805,38.282,78.803,38.285z M78.812,38.272c0.002-0.003,0.005-0.006,0.007-0.009   C78.817,38.266,78.815,38.269,78.812,38.272z M78.822,38.26c0.002-0.003,0.005-0.006,0.008-0.009   C78.827,38.254,78.825,38.257,78.822,38.26z M78.832,38.248c0.003-0.003,0.005-0.006,0.008-0.009   C78.838,38.242,78.835,38.245,78.832,38.248z M78.842,38.237c0.003-0.003,0.006-0.007,0.009-0.01   C78.848,38.23,78.845,38.233,78.842,38.237z M78.852,38.226c0.01-0.011,0.02-0.021,0.03-0.03   C78.872,38.205,78.862,38.215,78.852,38.226z M79.008,38.104L79.008,38.104L79.008,38.104z M78.884,38.194   c0.003-0.003,0.005-0.005,0.008-0.008C78.889,38.189,78.887,38.192,78.884,38.194z M78.895,38.185   c0.002-0.002,0.005-0.004,0.007-0.006C78.899,38.18,78.897,38.182,78.895,38.185z M78.905,38.176   c0.002-0.002,0.005-0.004,0.007-0.006C78.909,38.172,78.907,38.174,78.905,38.176z M78.914,38.168   c0.002-0.002,0.004-0.004,0.007-0.005C78.919,38.164,78.917,38.166,78.914,38.168z M78.924,38.16   c0.002-0.002,0.004-0.003,0.006-0.005C78.928,38.157,78.926,38.158,78.924,38.16z M78.933,38.153   c0.002-0.002,0.004-0.003,0.006-0.005C78.937,38.15,78.935,38.151,78.933,38.153z M78.942,38.146   c0.002-0.002,0.005-0.003,0.007-0.005C78.946,38.143,78.944,38.145,78.942,38.146z M78.95,38.14   c0.006-0.004,0.011-0.008,0.016-0.011C78.961,38.132,78.956,38.136,78.95,38.14z M78.968,38.128   c0.002-0.001,0.004-0.003,0.006-0.004C78.972,38.125,78.97,38.126,78.968,38.128z M78.977,38.122   c0.001-0.001,0.003-0.002,0.004-0.003C78.98,38.12,78.978,38.121,78.977,38.122z M78.984,38.117   c0.001-0.001,0.002-0.001,0.003-0.002C78.986,38.116,78.985,38.117,78.984,38.117z M78.991,38.113   c0.001-0.001,0.002-0.001,0.003-0.002C78.993,38.112,78.992,38.113,78.991,38.113z M78.997,38.11c0.001,0,0.002-0.001,0.002-0.001   C78.999,38.109,78.998,38.109,78.997,38.11z M79.003,38.106l0.002-0.001L79.003,38.106z" fill="#363A3F"/></g></svg>