<?xml version="1.0" ?><!DOCTYPE svg  PUBLIC '-//W3C//DTD SVG 1.1//EN'  'http://www.w3.org/Graphics/SVG/1.1/DTD/svg11.dtd'><svg enable-background="new 0 0 128 128" id="Слой_1" version="1.1" viewBox="0 0 128 128" xml:space="preserve" xmlns="http://www.w3.org/2000/svg" xmlns:xlink="http://www.w3.org/1999/xlink"><ellipse cx="64" cy="64" fill="#65C8CE" rx="62" ry="62.5"/><polygon fill="#FDFAFA" points="105.7,37.3 105.7,37.3 12,62.6 34,69.8 41,105.6 51,75 50.9,75.3 41,105.6 65.2,80 77.3,83.9 "/><polygon fill="#F5C93F" points="49.7,52.4 67.9,54.3 67.9,54.3 67.9,54.3 69.5,62.3 76.8,57.2 76.8,57.2 76.8,57.2 88.1,66.2   105.7,37.3 "/><g opacity="0.1"><polygon fill="#010203" points="41,105.6 65.2,80 50.9,75.3  "/></g><polygon fill="#010203" opacity="0.1" points="50.9,75.3 105.7,37.3 34,69.6 41,105.6 65.2,80 50.9,75.3 "/><path d="M2,65.2c0.6,29.8,21.9,54.6,50,60.1l25.3-41.4l-26.4-8.6L41,105.6l-7-35.8L12,62.5L2,65.2z" fill="#FDFAFA" opacity="0.3"/></svg>