<?xml version="1.0" standalone="no"?>
<!DOCTYPE svg PUBLIC "-//W3C//DTD SVG 20010904//EN"
 "http://www.w3.org/TR/2001/REC-SVG-20010904/DTD/svg10.dtd">
<svg version="1.0" xmlns="http://www.w3.org/2000/svg"
 width="2413.000000pt" height="2413.000000pt" viewBox="0 0 2413.000000 2413.000000"
 preserveAspectRatio="xMidYMid meet">
<metadata>
Created by potrace 1.13, written by Peter Selinger 2001-2015
</metadata>
<g transform="translate(0.000000,2413.000000) scale(0.100000,-0.100000)"
fill="#000000" stroke="none">
<path d="M120 12065 l0 -12065 12005 0 12005 0 0 12065 0 12065 -12005 0
-12005 0 0 -12065z m7937 5845 c38 -6 154 -17 258 -26 962 -79 1888 -379 2705
-877 63 -39 130 -79 148 -90 17 -10 32 -22 32 -26 0 -4 -48 -7 -107 -7 -60 1
-137 -2 -173 -6 -36 -4 -130 -12 -210 -18 -80 -6 -168 -15 -196 -21 -66 -13
-258 -18 -774 -21 -666 -5 -830 1 -1190 36 -91 10 -184 14 -207 11 -23 -3
-122 1 -220 11 -216 20 -682 15 -889 -10 -741 -88 -1414 -326 -2048 -723 -702
-440 -1234 -1035 -1597 -1788 -202 -419 -317 -806 -386 -1295 -14 -101 -18
-197 -18 -500 0 -406 10 -519 71 -820 58 -283 160 -611 255 -818 16 -35 29
-66 29 -68 0 -15 139 -288 205 -404 368 -645 853 -1155 1475 -1551 793 -505
1690 -759 2673 -759 948 1 1756 237 2437 713 746 522 1231 1219 1444 2075 34
133 76 348 76 384 0 17 -74 18 -1627 20 l-1628 3 -3 493 -2 492 2211 0 2212 0
-7 -182 c-51 -1396 -425 -2459 -1173 -3335 -138 -162 -430 -445 -593 -576
-702 -563 -1511 -892 -2510 -1021 -404 -52 -1027 -66 -1440 -32 -972 81 -1759
309 -2490 724 -1069 606 -1964 1658 -2384 2800 -171 465 -255 852 -308 1427
-15 159 -15 657 0 820 89 984 370 1789 903 2592 193 290 376 512 648 783 421
420 821 710 1356 980 692 350 1401 538 2259 600 70 5 131 11 134 14 10 10 579
6 649 -4z m11158 -2740 c848 -54 1536 -316 2179 -833 145 -116 484 -459 610
-617 484 -608 752 -1247 853 -2035 14 -112 18 -213 18 -505 -1 -395 -11 -517
-70 -815 -127 -639 -419 -1240 -859 -1767 -452 -540 -959 -906 -1571 -1135
-723 -269 -1664 -316 -2465 -121 -847 205 -1547 679 -2117 1433 -355 471 -604
1019 -717 1585 -49 243 -67 417 -73 720 -6 305 3 479 38 725 100 699 380 1341
830 1900 690 858 1571 1346 2614 1449 266 26 487 31 730 16z"/>
<path d="M18725 14214 c-291 -29 -493 -69 -705 -143 -161 -55 -188 -66 -340
-143 -247 -123 -470 -278 -675 -470 -675 -627 -1005 -1384 -1005 -2297 0 -585
143 -1106 439 -1604 469 -787 1231 -1275 2161 -1382 183 -22 616 -16 780 9
568 89 1042 300 1460 649 382 319 693 779 876 1295 252 709 227 1568 -66 2257
-205 483 -587 962 -1020 1281 -30 22 -71 52 -91 66 -119 87 -397 235 -565 301
-184 72 -424 133 -639 162 -113 16 -518 28 -610 19z"/>
</g>
</svg>
